<?xml version="1.0" encoding="UTF-8" standalone="no"?><svg xmlns="http://www.w3.org/2000/svg" xmlns:xlink="http://www.w3.org/1999/xlink" contentScriptType="application/ecmascript" contentStyleType="text/css" height="499px" preserveAspectRatio="none" style="width:243px;height:499px;" version="1.1" viewBox="0 0 243 499" width="243px" zoomAndPan="magnify"><defs><filter height="300%" id="fodimo14elih2" width="300%" x="-1" y="-1"><feGaussianBlur result="blurOut" stdDeviation="2.0"/><feColorMatrix in="blurOut" result="blurOut2" type="matrix" values="0 0 0 0 0 0 0 0 0 0 0 0 0 0 0 0 0 0 .4 0"/><feOffset dx="4.0" dy="4.0" in="blurOut2" result="blurOut3"/><feBlend in="SourceGraphic" in2="blurOut3" mode="normal"/></filter></defs><g><ellipse cx="138.5" cy="18" fill="#000000" filter="url(#fodimo14elih2)" rx="10" ry="10" style="stroke: none; stroke-width: 1.0;"/><rect fill="#FEFECE" filter="url(#fodimo14elih2)" height="50" rx="12.5" ry="12.5" style="stroke: #A80036; stroke-width: 1.5;" width="70" x="103.5" y="89"/><line style="stroke: #A80036; stroke-width: 1.5;" x1="103.5" x2="173.5" y1="115.4883" y2="115.4883"/><text fill="#000000" font-family="sans-serif" font-size="14" lengthAdjust="spacingAndGlyphs" textLength="50" x="113.5" y="107.5352">Hungry</text><rect fill="#FEFECE" filter="url(#fodimo14elih2)" height="50" rx="12.5" ry="12.5" style="stroke: #A80036; stroke-width: 1.5;" width="55" x="6" y="216"/><line style="stroke: #A80036; stroke-width: 1.5;" x1="6" x2="61" y1="242.4883" y2="242.4883"/><text fill="#000000" font-family="sans-serif" font-size="14" lengthAdjust="spacingAndGlyphs" textLength="35" x="16" y="234.5352">Dead</text><ellipse cx="33.5" cy="352" fill="none" filter="url(#fodimo14elih2)" rx="10" ry="10" style="stroke: #000000; stroke-width: 1.0;"/><ellipse cx="34" cy="352.5" fill="#000000" rx="6" ry="6" style="stroke: none; stroke-width: 1.0;"/><rect fill="#FEFECE" filter="url(#fodimo14elih2)" height="50" rx="12.5" ry="12.5" style="stroke: #A80036; stroke-width: 1.5;" width="85" x="96" y="216"/><line style="stroke: #A80036; stroke-width: 1.5;" x1="96" x2="181" y1="242.4883" y2="242.4883"/><text fill="#000000" font-family="sans-serif" font-size="14" lengthAdjust="spacingAndGlyphs" textLength="65" x="106" y="234.5352">Digesting</text><rect fill="#FEFECE" filter="url(#fodimo14elih2)" height="50" rx="12.5" ry="12.5" style="stroke: #A80036; stroke-width: 1.5;" width="65" x="111" y="327"/><line style="stroke: #A80036; stroke-width: 1.5;" x1="111" x2="176" y1="353.4883" y2="353.4883"/><text fill="#000000" font-family="sans-serif" font-size="14" lengthAdjust="spacingAndGlyphs" textLength="45" x="121" y="345.5352">Playful</text><rect fill="#FEFECE" filter="url(#fodimo14elih2)" height="50" rx="12.5" ry="12.5" style="stroke: #A80036; stroke-width: 1.5;" width="79" x="152" y="438"/><line style="stroke: #A80036; stroke-width: 1.5;" x1="152" x2="231" y1="464.4883" y2="464.4883"/><text fill="#000000" font-family="sans-serif" font-size="14" lengthAdjust="spacingAndGlyphs" textLength="59" x="162" y="456.5352">Sleeping</text><!--link *start to Hungry--><path d="M138.5,28.2737 C138.5,41.3608 138.5,64.5555 138.5,83.5207 " fill="none" id="*start-Hungry" style="stroke: #A80036; stroke-width: 1.0;"/><polygon fill="#A80036" points="138.5,88.7458,142.5,79.7458,138.5,83.7458,134.5,79.7458,138.5,88.7458" style="stroke: #A80036; stroke-width: 1.0;"/><!--link Hungry to Dead--><path d="M111.4879,139.1116 C102.2411,148.193 92.0734,158.7423 83.5,169 C72.3641,182.3236 61.2221,198.0736 52.2917,211.4402 " fill="none" id="Hungry-Dead" style="stroke: #A80036; stroke-width: 1.0;"/><polygon fill="#A80036" points="49.3511,215.8749,57.6585,210.5846,52.1142,211.7078,50.991,206.1635,49.3511,215.8749" style="stroke: #A80036; stroke-width: 1.0;"/><text fill="#000000" font-family="sans-serif" font-size="13" lengthAdjust="spacingAndGlyphs" textLength="45" x="84.5" y="182.5684">not fed</text><!--link Dead to *end--><path d="M33.5,266.1876 C33.5,287.8675 33.5,318.4491 33.5,336.646 " fill="none" id="Dead-*end" style="stroke: #A80036; stroke-width: 1.0;"/><polygon fill="#A80036" points="33.5,341.8722,37.5,332.8722,33.5,336.8722,29.5,332.8722,33.5,341.8722" style="stroke: #A80036; stroke-width: 1.0;"/><!--link Hungry to Digesting--><path d="M138.5,139.0911 C138.5,159.7035 138.5,188.9647 138.5,210.8484 " fill="none" id="Hungry-Digesting" style="stroke: #A80036; stroke-width: 1.0;"/><polygon fill="#A80036" points="138.5,215.961,142.5,206.961,138.5,210.961,134.5,206.961,138.5,215.961" style="stroke: #A80036; stroke-width: 1.0;"/><text fill="#000000" font-family="sans-serif" font-size="13" lengthAdjust="spacingAndGlyphs" textLength="20" x="139.5" y="182.5684">fed</text><!--link Digesting to Playful--><path d="M139.6346,266.1876 C140.3761,282.6504 141.3489,304.2461 142.1331,321.6543 " fill="none" id="Digesting-Playful" style="stroke: #A80036; stroke-width: 1.0;"/><polygon fill="#A80036" points="142.3699,326.9121,145.9606,317.7411,142.1448,321.9172,137.9687,318.1013,142.3699,326.9121" style="stroke: #A80036; stroke-width: 1.0;"/><!--link Playful to Sleeping--><path d="M154.3919,377.1876 C161.5724,393.7923 171.0109,415.6189 178.5718,433.1036 " fill="none" id="Playful-Sleeping" style="stroke: #A80036; stroke-width: 1.0;"/><polygon fill="#A80036" points="180.6512,437.9121,180.7504,428.0637,178.6666,433.3228,173.4076,431.2391,180.6512,437.9121" style="stroke: #A80036; stroke-width: 1.0;"/><!--link Sleeping to Hungry--><path d="M196.9262,437.8949 C205.6865,392.6092 219.9156,294.6447 198.5,216 C191.2734,189.4619 175.1966,162.7854 161.5022,143.3728 " fill="none" id="Sleeping-Hungry" style="stroke: #A80036; stroke-width: 1.0;"/><polygon fill="#A80036" points="158.4408,139.0961,160.427,148.7426,161.3512,143.1618,166.932,144.086,158.4408,139.0961" style="stroke: #A80036; stroke-width: 1.0;"/><!--
@startuml
[*] - -> Hungry
Hungry - -> Dead : not fed
Dead - -> [*]
Hungry - -> Digesting : fed
Digesting - -> Playful
Playful - -> Sleeping
Sleeping - -> Hungry
@enduml

PlantUML version 1.2017.16(Sun Sep 03 12:53:37 CEST 2017)
(GPL source distribution)
Java Runtime: Java(TM) SE Runtime Environment
JVM: Java HotSpot(TM) 64-Bit Server VM
Java Version: 1.8.0_144-b01
Operating System: Mac OS X
OS Version: 10.12.6
Default Encoding: UTF-8
Language: en
Country: US
--></g></svg>